<?xml version="1.0" standalone="no"?>
<!DOCTYPE svg PUBLIC "-//W3C//DTD SVG 20010904//EN"
 "http://www.w3.org/TR/2001/REC-SVG-20010904/DTD/svg10.dtd">
<svg version="1.0" xmlns="http://www.w3.org/2000/svg"
 width="348.000000pt" height="348.000000pt" viewBox="0 0 348.000000 348.000000"
 preserveAspectRatio="xMidYMid meet">
<metadata>
Created by potrace 1.16, written by Peter Selinger 2001-2019
</metadata>
<g transform="translate(0.000000,348.000000) scale(0.100000,-0.100000)"
fill="#000000" stroke="none">
<path d="M1570 3224 c-14 -2 -58 -9 -98 -15 -165 -24 -424 -135 -586 -250
-113 -81 -264 -231 -345 -345 -75 -105 -167 -291 -210 -424 -82 -253 -82 -610
1 -870 40 -125 112 -274 189 -391 81 -122 273 -315 389 -391 189 -125 419
-216 612 -242 128 -18 381 -13 498 8 270 50 552 200 754 400 130 128 204 229
283 384 122 241 164 427 158 707 -5 226 -31 345 -119 555 -188 444 -640 793
-1118 864 -95 14 -338 20 -408 10z m255 -544 c20 -12 47 -34 60 -48 20 -21 32
-25 96 -26 61 -1 82 -6 121 -29 145 -85 172 -277 56 -396 -38 -39 -70 -56
-133 -72 l-48 -12 7 -137 6 -137 -142 -95 c-79 -52 -155 -102 -169 -111 -25
-17 -27 -16 -152 65 -69 46 -133 88 -142 93 -15 9 -15 22 -1 161 21 199 23
184 -21 184 -89 1 -168 53 -208 135 -96 195 72 406 284 355 50 -12 51 -12 76
18 14 17 49 42 78 57 45 23 61 26 123 22 52 -3 82 -10 109 -27z m954 -194 c0
-6 -103 -91 -230 -189 -201 -156 -244 -197 -209 -197 4 0 112 74 240 165 206
147 250 175 250 161 0 -2 3 -11 6 -19 4 -11 -62 -67 -225 -192 -127 -97 -231
-181 -231 -185 0 -30 45 -3 246 146 125 91 234 169 244 171 10 3 20 -2 23 -11
5 -11 -54 -64 -218 -197 -124 -100 -225 -184 -225 -188 0 -25 35 -3 238 151
123 94 231 171 240 172 14 1 41 -29 32 -37 -3 -2 -84 -71 -180 -153 -96 -82
-216 -184 -267 -227 l-92 -78 -29 15 c-16 8 -51 31 -77 51 l-47 37 -37 -30
c-22 -18 -37 -39 -39 -56 -3 -22 -8 -27 -27 -24 -19 2 -61 -28 -180 -127 -196
-163 -195 -162 -195 -168 0 -2 37 -28 83 -58 249 -161 576 -373 604 -392 31
-20 33 -26 33 -77 -1 -58 -9 -75 -50 -103 -59 -41 -65 -37 -432 254 -187 150
-346 272 -353 273 -7 0 -134 -101 -283 -227 -153 -127 -280 -227 -291 -227
-59 0 -117 45 -126 99 -12 70 -4 77 290 276 231 156 275 189 264 200 -8 8 -70
58 -139 113 -88 70 -129 98 -140 92 -24 -12 -41 -1 -35 23 5 18 -4 30 -45 61
l-51 39 -23 -22 c-29 -28 -116 -61 -159 -61 -146 1 -285 106 -370 280 -36 73
-42 96 -45 163 l-4 78 35 33 c40 38 79 48 177 47 145 -1 279 -52 370 -141 84
-82 110 -175 79 -279 -7 -23 -10 -43 -8 -44 2 -2 25 -18 51 -36 38 -25 52 -30
67 -22 21 12 31 5 31 -21 0 -12 50 -51 163 -125 89 -58 167 -106 173 -106 6 0
106 64 223 143 162 110 211 148 208 162 -5 19 15 30 38 22 13 -5 95 38 95 49
0 2 -11 32 -26 66 -44 111 -58 95 271 315 213 142 293 191 303 184 6 -6 12
-16 11 -22z"/>
<path d="M1625 2643 c-43 -22 -82 -61 -95 -94 -7 -16 -13 -29 -14 -29 0 0 -23
11 -50 25 -27 14 -66 25 -85 25 -112 -1 -215 -120 -195 -225 11 -58 56 -118
108 -144 40 -20 58 -23 109 -18 l60 5 -7 -61 c-3 -34 -9 -116 -13 -183 l-6
-121 32 -22 c18 -13 35 -20 39 -16 4 4 9 108 11 232 2 174 0 224 -9 218 -23
-14 -91 -6 -124 14 -18 11 -41 38 -51 60 -25 56 -14 105 35 153 34 34 43 38
89 38 l51 0 0 -35 c0 -20 6 -50 13 -68 16 -37 67 -100 75 -92 3 2 -3 14 -14
26 -15 16 -19 36 -19 89 0 63 3 71 30 100 41 43 76 60 125 60 57 0 107 -26
137 -70 24 -37 25 -38 54 -23 38 19 119 19 156 0 42 -22 73 -60 89 -108 l14
-44 -4 48 c-9 111 -127 193 -234 161 -41 -12 -43 -11 -56 14 -44 85 -170 128
-251 85z"/>
<path d="M582 2133 c61 -206 197 -333 356 -333 120 0 195 67 207 187 5 48 5
48 -7 15 -17 -43 -59 -94 -90 -111 -25 -13 -34 -7 -252 148 -124 89 -228 161
-230 161 -2 0 5 -30 16 -67z"/>
<path d="M2279 2144 c-71 -50 -71 -49 -33 -134 27 -59 91 -132 138 -157 26
-13 30 -13 44 1 14 14 7 27 -77 137 -77 101 -91 124 -79 133 44 33 82 66 77
66 -3 0 -34 -20 -70 -46z"/>
<path d="M1650 1461 c35 -29 467 -366 606 -473 52 -40 79 -55 94 -51 33 9 22
26 -48 73 -37 25 -173 120 -302 211 -337 237 -389 273 -350 240z"/>
<path d="M1350 1286 c-129 -90 -238 -170 -244 -178 -5 -8 -6 -23 -2 -33 8 -21
-15 -37 270 185 203 158 242 192 219 189 -5 0 -114 -74 -243 -163z"/>
</g>
</svg>
